<svg xmlns="http://www.w3.org/2000/svg" viewBox="0 0 1600 686" width="1600" height="686">
  <rect width="1600" height="686" fill="#fafaf8"/>
  <defs>
    <style>
      .meta{font-family:Inter,Helvetica,'Noto Sans SC',sans-serif;font-size:28px;letter-spacing:6px;fill:#737373;font-weight:600}
      .title{font-family:Inter,Helvetica,'Noto Sans SC',sans-serif;font-size:72px;fill:#0a0a0a;font-weight:300;letter-spacing:-2px}
      .label{font-family:Inter,Helvetica,'Noto Sans SC',sans-serif;font-size:30px;fill:#0a0a0a;font-weight:500}
      .small{font-family:Inter,Helvetica,'Noto Sans SC',sans-serif;font-size:22px;fill:#525252}
      .num{font-family:Inter,Helvetica,sans-serif;font-size:26px;fill:#002FA7;font-weight:600}
    </style>
  </defs>
  <text x="80" y="84" class="meta">PRIVATE SALES FUNNEL</text>
  <text x="80" y="170" class="title">成交发生在信任之后</text>
  <line x1="80" y1="218" x2="1520" y2="218" stroke="#d4d4d2" stroke-width="2"/>
  <g transform="translate(80,300)">
    <polygon points="0,0 1440,0 1270,90 170,90" fill="#f0f0ee"/>
    <polygon points="170,118 1270,118 1120,208 320,208" fill="#f0f0ee"/>
    <polygon points="320,236 1120,236 970,326 470,326" fill="#002FA7"/>
  </g>
  <text x="150" y="354" class="num">01</text><text x="215" y="354" class="label">公开内容</text><text x="215" y="390" class="small">收藏、评论、私信兴趣</text>
  <text x="420" y="472" class="num">02</text><text x="485" y="472" class="label">私信筛选</text><text x="485" y="508" class="small">30 秒解释 + 用户问题</text>
  <text x="610" y="590" class="num" fill="#fff">03</text><text x="675" y="590" class="label" fill="#fff">到店深聊 / 9800 讲解</text><text x="675" y="626" class="small" fill="#fff">3 分钟权益说明 + 异议处理 + 跟进</text>
  <rect x="1230" y="536" width="210" height="70" fill="#0a0a0a"/>
  <text x="1260" y="581" class="label" fill="#fff">成交复盘</text>
</svg>
